<?xml version="1.0" encoding="utf-8"?>
<!-- Generator: Adobe Illustrator 22.0.1, SVG Export Plug-In . SVG Version: 6.00 Build 0)  -->
<svg version="1.1" id="Layer_1" xmlns="http://www.w3.org/2000/svg" xmlns:xlink="http://www.w3.org/1999/xlink" x="0px" y="0px" width="100px" height="14px"
	 viewBox="0 0 100 14" style="enable-background:new 0 0 100 14;" xml:space="preserve">
<style type="text/css">
	.st0{fill:#FFFFFF;}
	.st1{fill:#0FD09F;}
	.st2{fill:#DBF8F1;}
	.st3{fill:#02B88A;}
</style>
<title>promo-gift-lid</title>
<desc>Created with Sketch.</desc>
<g id="Symbols">
	<g id="promo-gift-lid">
		<g id="Group-3">
			<g id="Rectangle">
				<path class="st0" d="M3.5,13.5c-1.7,0-3-1.3-3-3V3.3c0-1.6,1.3-2.8,2.8-2.8h61.5v13H3.5z"/>
				<path class="st1" d="M64.4,1v12H3.5C2.1,13,1,11.9,1,10.5V3.3C1,2,2,1,3.3,1H64.4 M65.4,0h-62C1.5,0,0,1.5,0,3.3v7.2
					C0,12.4,1.6,14,3.5,14h61.9V0L65.4,0z"/>
			</g>
			<rect id="Rectangle-2-Copy" x="23" class="st1" width="11" height="14"/>
			<g id="Rectangle-Copy">
				<path class="st2" d="M64.9,13.5v-13h31.6c1.7,0,3,1.3,3,3v7c0,1.7-1.3,3-3,3H64.9z"/>
				<path class="st1" d="M96.5,1C97.9,1,99,2.1,99,3.5v7c0,1.4-1.1,2.5-2.5,2.5H65.4V1H96.5 M96.5,0H64.4v14h32.1
					c1.9,0,3.5-1.6,3.5-3.5v-7C100,1.6,98.4,0,96.5,0L96.5,0z"/>
			</g>
			<rect id="Rectangle-2-Copy-3" x="82" class="st3" width="6" height="14"/>
		</g>
	</g>
</g>
</svg>
