<?xml version="1.0" encoding="UTF-8"?>
<svg width="60px" height="60px" viewBox="0 0 60 60" version="1.1" xmlns="http://www.w3.org/2000/svg" xmlns:xlink="http://www.w3.org/1999/xlink">
    <!-- Generator: Sketch 50.2 (55047) - http://www.bohemiancoding.com/sketch -->
    <title>logo/tokamovil</title>
    <desc>Created with Sketch.</desc>
    <defs></defs>
    <g id="logo/tokamovil" stroke="none" stroke-width="1" fill="none" fill-rule="evenodd">
        <g id="Group-13" transform="translate(3.000000, 15.000000)">
            <path d="M14,0 L22,0 C23.1045695,-2.02906125e-16 24,0.8954305 24,2 L24,29 C24,30.1045695 23.1045695,31 22,31 L14,31 C12.8954305,31 12,30.1045695 12,29 L12,2 C12,0.8954305 12.8954305,2.02906125e-16 14,0 Z" id="Rectangle-3" fill="#0FD09F"></path>
            <path d="M42,0 L50,0 C51.1045695,-2.02906125e-16 52,0.8954305 52,2 L52,29 C52,30.1045695 51.1045695,31 50,31 L42,31 C40.8954305,31 40,30.1045695 40,29 L40,2 C40,0.8954305 40.8954305,2.02906125e-16 42,0 Z" id="Rectangle-3-Copy-2" fill="#0FD09F"></path>
            <path d="M28,0 L36,0 C37.1045695,-2.02906125e-16 38,0.8954305 38,2 L38,21 C38,22.1045695 37.1045695,23 36,23 L28,23 C26.8954305,23 26,22.1045695 26,21 L26,2 C26,0.8954305 26.8954305,2.02906125e-16 28,0 Z" id="Rectangle-3-Copy" fill="#0FD09F"></path>
            <path d="M2,0 L36,0 C37.1045695,-2.02906125e-16 38,0.8954305 38,2 L38,10 C38,11.1045695 37.1045695,12 36,12 L2,12 C0.8954305,12 1.3527075e-16,11.1045695 0,10 L0,2 C-1.3527075e-16,0.8954305 0.8954305,2.02906125e-16 2,0 Z" id="Rectangle-4" fill="#0FD09F"></path>
            <path d="M14,0 L22,0 C23.1045695,-2.02906125e-16 24,0.8954305 24,2 L24,29 C24,30.1045695 23.1045695,31 22,31 L14,31 C12.8954305,31 12,30.1045695 12,29 L12,2 C12,0.8954305 12.8954305,2.02906125e-16 14,0 Z" id="Rectangle-3-Copy-4" fill="#0FD09F"></path>
            <path d="M28,0 L36,0 C37.1045695,-2.02906125e-16 38,0.8954305 38,2 L38,21 C38,22.1045695 37.1045695,23 36,23 L28,23 C26.8954305,23 26,22.1045695 26,21 L26,2 C26,0.8954305 26.8954305,2.02906125e-16 28,0 Z" id="Rectangle-3-Copy-3" fill="#0FD09F"></path>
            <path d="M2,0 L36,0 C37.1045695,-2.02906125e-16 38,0.8954305 38,2 L38,10 C38,11.1045695 37.1045695,12 36,12 L2,12 C0.8954305,12 1.3527075e-16,11.1045695 0,10 L0,2 C-1.3527075e-16,0.8954305 0.8954305,2.02906125e-16 2,0 Z" id="Rectangle-4-Copy" fill="#0FD09F"></path>
            <path d="M14,0 L22,0 C23.1045695,-2.02906125e-16 24,0.8954305 24,2 L24,12 L12,12 L12,2 C12,0.8954305 12.8954305,2.02906125e-16 14,0 Z" id="Combined-Shape" fill="#00B884"></path>
            <path d="M28,0 L36,0 C37.1045695,-2.02906125e-16 38,0.8954305 38,2 L38,10 C38,11.1045695 37.1045695,12 36,12 L26,12 L26,2 C26,0.8954305 26.8954305,2.02906125e-16 28,0 Z" id="Combined-Shape" fill="#00B884"></path>
        </g>
    </g>
</svg>